<svg width="20" height="19" viewBox="0 0 20 19" fill="none" xmlns="http://www.w3.org/2000/svg">
<path d="M9.38802 1.09648C9.58017 0.634506 10.2346 0.634506 10.4268 1.09648L12.5527 6.20794C12.6337 6.4027 12.8169 6.53577 13.0271 6.55262L18.5454 6.99502C19.0441 7.035 19.2464 7.65741 18.8664 7.98291L14.6621 11.5844C14.5019 11.7216 14.4319 11.9369 14.4808 12.1421L15.7653 17.5269C15.8814 18.0136 15.352 18.3983 14.925 18.1375L10.2006 15.2519C10.0206 15.1419 9.79419 15.1419 9.61418 15.2519L4.88979 18.1375C4.4628 18.3983 3.93335 18.0136 4.04944 17.5269L5.33393 12.1421C5.38287 11.9369 5.31291 11.7216 5.15272 11.5844L0.948396 7.98292C0.568406 7.65741 0.770639 7.035 1.26938 6.99502L6.78763 6.55262C6.99789 6.53577 7.18104 6.4027 7.26205 6.20794L9.38802 1.09648Z" stroke="white" stroke-width="1.5" stroke-linecap="round" stroke-linejoin="round"/>
</svg>
